<mxfile host="app.diagrams.net" modified="2023-09-07T23:36:06.740Z" agent="Mozilla/5.0 (X11; Linux x86_64; rv:109.0) Gecko/20100101 Firefox/114.0" etag="YCVNTIpXGB7nb4dCfiQt" version="21.7.2" type="device">
  <diagram name="Page-1" id="vRsSdw8cD31q3ONn-wTf">
    <mxGraphModel dx="1430" dy="785" grid="1" gridSize="10" guides="1" tooltips="1" connect="1" arrows="1" fold="1" page="1" pageScale="1" pageWidth="850" pageHeight="1100" math="0" shadow="0">
      <root>
        <mxCell id="0" />
        <mxCell id="1" parent="0" />
        <mxCell id="UT8dh_t8u8lZJRGNA_5Q-23" value="" style="group" parent="1" vertex="1" connectable="0">
          <mxGeometry x="480" y="40" width="340" height="200" as="geometry" />
        </mxCell>
        <mxCell id="UT8dh_t8u8lZJRGNA_5Q-11" value="" style="shape=folder;fontStyle=1;spacingTop=10;tabWidth=300;tabHeight=40;tabPosition=left;html=1;whiteSpace=wrap;" parent="UT8dh_t8u8lZJRGNA_5Q-23" vertex="1">
          <mxGeometry width="340" height="200" as="geometry" />
        </mxCell>
        <mxCell id="UT8dh_t8u8lZJRGNA_5Q-12" value="&lt;font style=&quot;font-size: 15px;&quot;&gt;com.enterprise4045.groceryplanner.dto&lt;/font&gt;" style="text;html=1;strokeColor=none;fillColor=none;align=center;verticalAlign=middle;whiteSpace=wrap;rounded=0;" parent="UT8dh_t8u8lZJRGNA_5Q-23" vertex="1">
          <mxGeometry x="120" y="5" width="60" height="30" as="geometry" />
        </mxCell>
        <mxCell id="UT8dh_t8u8lZJRGNA_5Q-15" value="Item" style="swimlane;fontStyle=1;align=center;verticalAlign=top;childLayout=stackLayout;horizontal=1;startSize=26;horizontalStack=0;resizeParent=1;resizeParentMax=0;resizeLast=0;collapsible=1;marginBottom=0;whiteSpace=wrap;html=1;" parent="UT8dh_t8u8lZJRGNA_5Q-23" vertex="1">
          <mxGeometry x="10" y="50" width="160" height="58" as="geometry" />
        </mxCell>
        <mxCell id="UT8dh_t8u8lZJRGNA_5Q-16" value="&lt;div&gt;name: String&lt;/div&gt;&lt;div&gt;&lt;br&gt;&lt;/div&gt;&lt;div&gt;&lt;br&gt;&lt;/div&gt;&lt;div&gt;&lt;br&gt;&lt;/div&gt;" style="text;strokeColor=none;fillColor=none;align=left;verticalAlign=top;spacingLeft=4;spacingRight=4;overflow=hidden;rotatable=0;points=[[0,0.5],[1,0.5]];portConstraint=eastwest;whiteSpace=wrap;html=1;" parent="UT8dh_t8u8lZJRGNA_5Q-15" vertex="1">
          <mxGeometry y="26" width="160" height="24" as="geometry" />
        </mxCell>
        <mxCell id="UT8dh_t8u8lZJRGNA_5Q-17" value="" style="line;strokeWidth=1;fillColor=none;align=left;verticalAlign=middle;spacingTop=-1;spacingLeft=3;spacingRight=3;rotatable=0;labelPosition=right;points=[];portConstraint=eastwest;strokeColor=inherit;" parent="UT8dh_t8u8lZJRGNA_5Q-15" vertex="1">
          <mxGeometry y="50" width="160" height="8" as="geometry" />
        </mxCell>
        <mxCell id="UT8dh_t8u8lZJRGNA_5Q-19" value="LoggedItem" style="swimlane;fontStyle=1;align=center;verticalAlign=top;childLayout=stackLayout;horizontal=1;startSize=26;horizontalStack=0;resizeParent=1;resizeParentMax=0;resizeLast=0;collapsible=1;marginBottom=0;whiteSpace=wrap;html=1;" parent="UT8dh_t8u8lZJRGNA_5Q-23" vertex="1">
          <mxGeometry x="170" y="70" width="160" height="60" as="geometry" />
        </mxCell>
        <mxCell id="UT8dh_t8u8lZJRGNA_5Q-20" value="dateAdded: LocalTime" style="text;strokeColor=none;fillColor=none;align=left;verticalAlign=top;spacingLeft=4;spacingRight=4;overflow=hidden;rotatable=0;points=[[0,0.5],[1,0.5]];portConstraint=eastwest;whiteSpace=wrap;html=1;" parent="UT8dh_t8u8lZJRGNA_5Q-19" vertex="1">
          <mxGeometry y="26" width="160" height="26" as="geometry" />
        </mxCell>
        <mxCell id="UT8dh_t8u8lZJRGNA_5Q-21" value="" style="line;strokeWidth=1;fillColor=none;align=left;verticalAlign=middle;spacingTop=-1;spacingLeft=3;spacingRight=3;rotatable=0;labelPosition=right;points=[];portConstraint=eastwest;strokeColor=inherit;" parent="UT8dh_t8u8lZJRGNA_5Q-19" vertex="1">
          <mxGeometry y="52" width="160" height="8" as="geometry" />
        </mxCell>
        <mxCell id="6LZD3BuMsYt0DArxaeBH-6" style="edgeStyle=orthogonalEdgeStyle;rounded=0;orthogonalLoop=1;jettySize=auto;html=1;entryX=0.5;entryY=1;entryDx=0;entryDy=0;" edge="1" parent="UT8dh_t8u8lZJRGNA_5Q-23" source="6LZD3BuMsYt0DArxaeBH-1" target="UT8dh_t8u8lZJRGNA_5Q-15">
          <mxGeometry relative="1" as="geometry" />
        </mxCell>
        <mxCell id="6LZD3BuMsYt0DArxaeBH-1" value="Food" style="swimlane;fontStyle=1;align=center;verticalAlign=top;childLayout=stackLayout;horizontal=1;startSize=26;horizontalStack=0;resizeParent=1;resizeParentMax=0;resizeLast=0;collapsible=1;marginBottom=0;whiteSpace=wrap;html=1;" vertex="1" parent="UT8dh_t8u8lZJRGNA_5Q-23">
          <mxGeometry x="10" y="130" width="160" height="60" as="geometry" />
        </mxCell>
        <mxCell id="6LZD3BuMsYt0DArxaeBH-2" value="&lt;div&gt;brandName: String&lt;br&gt;&lt;/div&gt;&lt;div&gt;calories: String&lt;/div&gt;" style="text;strokeColor=none;fillColor=none;align=left;verticalAlign=top;spacingLeft=4;spacingRight=4;overflow=hidden;rotatable=0;points=[[0,0.5],[1,0.5]];portConstraint=eastwest;whiteSpace=wrap;html=1;" vertex="1" parent="6LZD3BuMsYt0DArxaeBH-1">
          <mxGeometry y="26" width="160" height="34" as="geometry" />
        </mxCell>
        <mxCell id="6LZD3BuMsYt0DArxaeBH-3" value="" style="line;strokeWidth=1;fillColor=none;align=left;verticalAlign=middle;spacingTop=-1;spacingLeft=3;spacingRight=3;rotatable=0;labelPosition=right;points=[];portConstraint=eastwest;strokeColor=inherit;" vertex="1" parent="UT8dh_t8u8lZJRGNA_5Q-23">
          <mxGeometry x="10" y="170" width="160" height="8" as="geometry" />
        </mxCell>
        <mxCell id="UT8dh_t8u8lZJRGNA_5Q-24" value="" style="group" parent="1" vertex="1" connectable="0">
          <mxGeometry x="40" y="40" width="380" height="200" as="geometry" />
        </mxCell>
        <mxCell id="UT8dh_t8u8lZJRGNA_5Q-1" value="" style="shape=folder;fontStyle=1;spacingTop=10;tabWidth=290;tabHeight=40;tabPosition=left;html=1;whiteSpace=wrap;" parent="UT8dh_t8u8lZJRGNA_5Q-24" vertex="1">
          <mxGeometry width="380" height="200" as="geometry" />
        </mxCell>
        <mxCell id="UT8dh_t8u8lZJRGNA_5Q-2" value="&lt;font style=&quot;font-size: 15px;&quot;&gt;com.enterprise4045.groceryplanner&lt;/font&gt;" style="text;strokeColor=none;fillColor=none;html=1;fontSize=24;fontStyle=1;verticalAlign=middle;align=center;" parent="UT8dh_t8u8lZJRGNA_5Q-24" vertex="1">
          <mxGeometry x="90" width="100" height="40" as="geometry" />
        </mxCell>
        <mxCell id="UT8dh_t8u8lZJRGNA_5Q-3" value="GroceryPlannerApplication" style="swimlane;fontStyle=1;align=center;verticalAlign=top;childLayout=stackLayout;horizontal=1;startSize=26;horizontalStack=0;resizeParent=1;resizeParentMax=0;resizeLast=0;collapsible=1;marginBottom=0;whiteSpace=wrap;html=1;" parent="UT8dh_t8u8lZJRGNA_5Q-24" vertex="1">
          <mxGeometry x="200" y="70" width="160" height="34" as="geometry" />
        </mxCell>
        <mxCell id="UT8dh_t8u8lZJRGNA_5Q-5" value="" style="line;strokeWidth=1;fillColor=none;align=left;verticalAlign=middle;spacingTop=-1;spacingLeft=3;spacingRight=3;rotatable=0;labelPosition=right;points=[];portConstraint=eastwest;strokeColor=inherit;" parent="UT8dh_t8u8lZJRGNA_5Q-3" vertex="1">
          <mxGeometry y="26" width="160" height="8" as="geometry" />
        </mxCell>
        <mxCell id="UT8dh_t8u8lZJRGNA_5Q-7" value="GroceryPlannerController" style="swimlane;fontStyle=1;align=center;verticalAlign=top;childLayout=stackLayout;horizontal=1;startSize=26;horizontalStack=0;resizeParent=1;resizeParentMax=0;resizeLast=0;collapsible=1;marginBottom=0;whiteSpace=wrap;html=1;" parent="UT8dh_t8u8lZJRGNA_5Q-24" vertex="1">
          <mxGeometry x="30" y="70" width="160" height="34" as="geometry" />
        </mxCell>
        <mxCell id="UT8dh_t8u8lZJRGNA_5Q-9" value="" style="line;strokeWidth=1;fillColor=none;align=left;verticalAlign=middle;spacingTop=-1;spacingLeft=3;spacingRight=3;rotatable=0;labelPosition=right;points=[];portConstraint=eastwest;strokeColor=inherit;" parent="UT8dh_t8u8lZJRGNA_5Q-7" vertex="1">
          <mxGeometry y="26" width="160" height="8" as="geometry" />
        </mxCell>
        <mxCell id="UT8dh_t8u8lZJRGNA_5Q-45" value="" style="group" parent="1" vertex="1" connectable="0">
          <mxGeometry x="40" y="270" width="350" height="320" as="geometry" />
        </mxCell>
        <mxCell id="UT8dh_t8u8lZJRGNA_5Q-25" value="" style="shape=folder;fontStyle=1;spacingTop=10;tabWidth=300;tabHeight=40;tabPosition=left;html=1;whiteSpace=wrap;" parent="UT8dh_t8u8lZJRGNA_5Q-45" vertex="1">
          <mxGeometry width="350" height="320" as="geometry" />
        </mxCell>
        <mxCell id="UT8dh_t8u8lZJRGNA_5Q-26" value="com.enterprise4045.groceryplanner.service" style="text;html=1;strokeColor=none;fillColor=none;align=center;verticalAlign=middle;whiteSpace=wrap;rounded=0;" parent="UT8dh_t8u8lZJRGNA_5Q-45" vertex="1">
          <mxGeometry x="120" y="10" width="60" height="30" as="geometry" />
        </mxCell>
        <mxCell id="UT8dh_t8u8lZJRGNA_5Q-28" value="&lt;p style=&quot;margin:0px;margin-top:4px;text-align:center;&quot;&gt;&lt;i&gt;&amp;lt;&amp;lt;Interface&amp;gt;&amp;gt;&lt;/i&gt;&lt;/p&gt;&lt;p style=&quot;margin:0px;margin-top:4px;text-align:center;&quot;&gt;&lt;b&gt;ILoggedItemService&lt;/b&gt;&lt;br&gt;&lt;/p&gt;&lt;hr size=&quot;1&quot;&gt;&lt;p style=&quot;margin:0px;margin-left:4px;&quot;&gt;&lt;br&gt;&lt;/p&gt;&lt;hr size=&quot;1&quot;&gt;&lt;p style=&quot;margin:0px;margin-left:4px;&quot;&gt;fetchById()&lt;/p&gt;&lt;p style=&quot;margin:0px;margin-left:4px;&quot;&gt;save()&lt;br&gt;&lt;/p&gt;" style="verticalAlign=top;align=left;overflow=fill;fontSize=12;fontFamily=Helvetica;html=1;whiteSpace=wrap;" parent="UT8dh_t8u8lZJRGNA_5Q-45" vertex="1">
          <mxGeometry x="10" y="50" width="160" height="130" as="geometry" />
        </mxCell>
        <mxCell id="UT8dh_t8u8lZJRGNA_5Q-30" value="LoggedItemStub" style="swimlane;fontStyle=1;align=center;verticalAlign=top;childLayout=stackLayout;horizontal=1;startSize=26;horizontalStack=0;resizeParent=1;resizeParentMax=0;resizeLast=0;collapsible=1;marginBottom=0;whiteSpace=wrap;html=1;" parent="UT8dh_t8u8lZJRGNA_5Q-45" vertex="1">
          <mxGeometry x="10" y="210" width="160" height="34" as="geometry" />
        </mxCell>
        <mxCell id="UT8dh_t8u8lZJRGNA_5Q-32" value="" style="line;strokeWidth=1;fillColor=none;align=left;verticalAlign=middle;spacingTop=-1;spacingLeft=3;spacingRight=3;rotatable=0;labelPosition=right;points=[];portConstraint=eastwest;strokeColor=inherit;" parent="UT8dh_t8u8lZJRGNA_5Q-30" vertex="1">
          <mxGeometry y="26" width="160" height="8" as="geometry" />
        </mxCell>
        <mxCell id="UT8dh_t8u8lZJRGNA_5Q-35" value="" style="endArrow=block;dashed=1;endFill=0;endSize=12;html=1;rounded=0;exitX=0.5;exitY=0;exitDx=0;exitDy=0;entryX=0.5;entryY=1;entryDx=0;entryDy=0;" parent="UT8dh_t8u8lZJRGNA_5Q-45" source="UT8dh_t8u8lZJRGNA_5Q-30" target="UT8dh_t8u8lZJRGNA_5Q-28" edge="1">
          <mxGeometry width="160" relative="1" as="geometry">
            <mxPoint x="-170" y="190" as="sourcePoint" />
            <mxPoint x="-10" y="190" as="targetPoint" />
          </mxGeometry>
        </mxCell>
        <mxCell id="UT8dh_t8u8lZJRGNA_5Q-36" value="LoggedItemService" style="swimlane;fontStyle=1;align=center;verticalAlign=top;childLayout=stackLayout;horizontal=1;startSize=26;horizontalStack=0;resizeParent=1;resizeParentMax=0;resizeLast=0;collapsible=1;marginBottom=0;whiteSpace=wrap;html=1;" parent="UT8dh_t8u8lZJRGNA_5Q-45" vertex="1">
          <mxGeometry x="180" y="210" width="160" height="34" as="geometry" />
        </mxCell>
        <mxCell id="UT8dh_t8u8lZJRGNA_5Q-38" value="" style="line;strokeWidth=1;fillColor=none;align=left;verticalAlign=middle;spacingTop=-1;spacingLeft=3;spacingRight=3;rotatable=0;labelPosition=right;points=[];portConstraint=eastwest;strokeColor=inherit;" parent="UT8dh_t8u8lZJRGNA_5Q-36" vertex="1">
          <mxGeometry y="26" width="160" height="8" as="geometry" />
        </mxCell>
        <mxCell id="UT8dh_t8u8lZJRGNA_5Q-40" value="" style="endArrow=block;dashed=1;endFill=0;endSize=12;html=1;rounded=0;exitX=0.5;exitY=0;exitDx=0;exitDy=0;entryX=1;entryY=1;entryDx=0;entryDy=0;" parent="UT8dh_t8u8lZJRGNA_5Q-45" source="UT8dh_t8u8lZJRGNA_5Q-36" target="UT8dh_t8u8lZJRGNA_5Q-28" edge="1">
          <mxGeometry width="160" relative="1" as="geometry">
            <mxPoint x="200" y="140" as="sourcePoint" />
            <mxPoint x="360" y="140" as="targetPoint" />
          </mxGeometry>
        </mxCell>
        <mxCell id="UT8dh_t8u8lZJRGNA_5Q-50" value="" style="endArrow=open;endFill=1;endSize=12;html=1;rounded=0;" parent="UT8dh_t8u8lZJRGNA_5Q-45" edge="1">
          <mxGeometry width="160" relative="1" as="geometry">
            <mxPoint x="170" y="50" as="sourcePoint" />
            <mxPoint x="120" y="-120" as="targetPoint" />
          </mxGeometry>
        </mxCell>
        <mxCell id="UT8dh_t8u8lZJRGNA_5Q-46" value="" style="group" parent="1" vertex="1" connectable="0">
          <mxGeometry x="440" y="270" width="380" height="310" as="geometry" />
        </mxCell>
        <mxCell id="UT8dh_t8u8lZJRGNA_5Q-41" value="" style="shape=folder;fontStyle=1;spacingTop=10;tabWidth=280;tabHeight=40;tabPosition=left;html=1;whiteSpace=wrap;" parent="UT8dh_t8u8lZJRGNA_5Q-46" vertex="1">
          <mxGeometry width="350" height="310" as="geometry" />
        </mxCell>
        <mxCell id="UT8dh_t8u8lZJRGNA_5Q-44" value="&lt;div&gt;com.enterprise4045.groceryplanner.dao&lt;/div&gt;" style="text;html=1;strokeColor=none;fillColor=none;align=center;verticalAlign=middle;whiteSpace=wrap;rounded=0;" parent="UT8dh_t8u8lZJRGNA_5Q-46" vertex="1">
          <mxGeometry x="110" y="10" width="60" height="30" as="geometry" />
        </mxCell>
        <mxCell id="6LZD3BuMsYt0DArxaeBH-7" value="&lt;div&gt;«interface»&lt;b&gt;&lt;br&gt;&lt;/b&gt;&lt;/div&gt;&lt;div&gt;&lt;b&gt;IItemDAO&lt;/b&gt;&lt;/div&gt;&lt;div&gt;&lt;b&gt;&lt;br&gt;&lt;/b&gt;&lt;/div&gt;" style="html=1;whiteSpace=wrap;" vertex="1" parent="UT8dh_t8u8lZJRGNA_5Q-46">
          <mxGeometry x="30" y="70" width="110" height="50" as="geometry" />
        </mxCell>
        <mxCell id="6LZD3BuMsYt0DArxaeBH-8" value="&lt;div&gt;«interface»&lt;b&gt;&lt;br&gt;&lt;/b&gt;&lt;/div&gt;&lt;div&gt;&lt;b&gt;ILoggedItemDAO&lt;/b&gt;&lt;/div&gt;&lt;div&gt;&lt;b&gt;&lt;br&gt;&lt;/b&gt;&lt;/div&gt;" style="html=1;whiteSpace=wrap;" vertex="1" parent="UT8dh_t8u8lZJRGNA_5Q-46">
          <mxGeometry x="190" y="70" width="110" height="50" as="geometry" />
        </mxCell>
        <mxCell id="6LZD3BuMsYt0DArxaeBH-9" value="ItemDAO" style="swimlane;fontStyle=1;align=center;verticalAlign=top;childLayout=stackLayout;horizontal=1;startSize=26;horizontalStack=0;resizeParent=1;resizeParentMax=0;resizeLast=0;collapsible=1;marginBottom=0;whiteSpace=wrap;html=1;" vertex="1" collapsed="1" parent="UT8dh_t8u8lZJRGNA_5Q-46">
          <mxGeometry x="20" y="172" width="90" height="30" as="geometry">
            <mxRectangle x="20" y="172" width="160" height="34" as="alternateBounds" />
          </mxGeometry>
        </mxCell>
        <mxCell id="6LZD3BuMsYt0DArxaeBH-11" value="" style="line;strokeWidth=1;fillColor=none;align=left;verticalAlign=middle;spacingTop=-1;spacingLeft=3;spacingRight=3;rotatable=0;labelPosition=right;points=[];portConstraint=eastwest;strokeColor=inherit;" vertex="1" parent="6LZD3BuMsYt0DArxaeBH-9">
          <mxGeometry y="26" width="160" height="8" as="geometry" />
        </mxCell>
        <mxCell id="6LZD3BuMsYt0DArxaeBH-26" value="" style="endArrow=block;dashed=1;endFill=0;endSize=12;html=1;rounded=0;" edge="1" parent="6LZD3BuMsYt0DArxaeBH-9">
          <mxGeometry width="160" relative="1" as="geometry">
            <mxPoint x="40" y="-2" as="sourcePoint" />
            <mxPoint x="200" y="-2" as="targetPoint" />
          </mxGeometry>
        </mxCell>
        <mxCell id="6LZD3BuMsYt0DArxaeBH-24" value="LoggedItemDAO" style="swimlane;fontStyle=1;align=center;verticalAlign=top;childLayout=stackLayout;horizontal=1;startSize=26;horizontalStack=0;resizeParent=1;resizeParentMax=0;resizeLast=0;collapsible=1;marginBottom=0;whiteSpace=wrap;html=1;" vertex="1" parent="UT8dh_t8u8lZJRGNA_5Q-46">
          <mxGeometry x="170" y="180" width="160" height="34" as="geometry">
            <mxRectangle x="200" y="180" width="90" height="30" as="alternateBounds" />
          </mxGeometry>
        </mxCell>
        <mxCell id="6LZD3BuMsYt0DArxaeBH-25" value="" style="line;strokeWidth=1;fillColor=none;align=left;verticalAlign=middle;spacingTop=-1;spacingLeft=3;spacingRight=3;rotatable=0;labelPosition=right;points=[];portConstraint=eastwest;strokeColor=inherit;" vertex="1" parent="6LZD3BuMsYt0DArxaeBH-24">
          <mxGeometry y="26" width="160" height="8" as="geometry" />
        </mxCell>
        <mxCell id="6LZD3BuMsYt0DArxaeBH-27" value="" style="endArrow=block;dashed=1;endFill=0;endSize=12;html=1;rounded=0;exitX=0.5;exitY=0;exitDx=0;exitDy=0;entryX=0.5;entryY=1;entryDx=0;entryDy=0;" edge="1" parent="UT8dh_t8u8lZJRGNA_5Q-46" source="6LZD3BuMsYt0DArxaeBH-9" target="6LZD3BuMsYt0DArxaeBH-7">
          <mxGeometry width="160" relative="1" as="geometry">
            <mxPoint x="20" y="330" as="sourcePoint" />
            <mxPoint x="180" y="330" as="targetPoint" />
          </mxGeometry>
        </mxCell>
        <mxCell id="6LZD3BuMsYt0DArxaeBH-28" value="" style="endArrow=block;dashed=1;endFill=0;endSize=12;html=1;rounded=0;exitX=0.5;exitY=0;exitDx=0;exitDy=0;entryX=0.5;entryY=1;entryDx=0;entryDy=0;" edge="1" parent="UT8dh_t8u8lZJRGNA_5Q-46" target="6LZD3BuMsYt0DArxaeBH-8">
          <mxGeometry width="160" relative="1" as="geometry">
            <mxPoint x="250" y="180" as="sourcePoint" />
            <mxPoint x="270" y="128" as="targetPoint" />
          </mxGeometry>
        </mxCell>
        <mxCell id="6LZD3BuMsYt0DArxaeBH-29" style="edgeStyle=orthogonalEdgeStyle;rounded=0;orthogonalLoop=1;jettySize=auto;html=1;exitX=0.75;exitY=0;exitDx=0;exitDy=0;entryX=0;entryY=0.5;entryDx=0;entryDy=0;" edge="1" parent="1" source="UT8dh_t8u8lZJRGNA_5Q-36" target="6LZD3BuMsYt0DArxaeBH-7">
          <mxGeometry relative="1" as="geometry" />
        </mxCell>
        <mxCell id="6LZD3BuMsYt0DArxaeBH-30" style="edgeStyle=orthogonalEdgeStyle;rounded=0;orthogonalLoop=1;jettySize=auto;html=1;exitX=1;exitY=0;exitDx=0;exitDy=0;entryX=0;entryY=0.893;entryDx=0;entryDy=0;entryPerimeter=0;" edge="1" parent="1" source="UT8dh_t8u8lZJRGNA_5Q-36" target="6LZD3BuMsYt0DArxaeBH-8">
          <mxGeometry relative="1" as="geometry" />
        </mxCell>
      </root>
    </mxGraphModel>
  </diagram>
</mxfile>
